<?xml version="1.0" encoding="UTF-8"?>
<!DOCTYPE svg PUBLIC "-//W3C//DTD SVG 1.1//EN" "http://www.w3.org/Graphics/SVG/1.1/DTD/svg11.dtd">
<svg xmlns="http://www.w3.org/2000/svg" version="1.1" width="182px" height="142px" style="shape-rendering:geometricPrecision; text-rendering:geometricPrecision; image-rendering:optimizeQuality; fill-rule:evenodd; clip-rule:evenodd" xmlns:xlink="http://www.w3.org/1999/xlink">
<g><path style="opacity:1" fill="#399bcc" d="M 60.5,2.5 C 62.0098,3.72793 63.5098,3.72793 65,2.5C 66.0386,3.24382 66.5386,4.24382 66.5,5.5C 66.3932,7.37857 66.8932,7.7119 68,6.5C 69.1893,10.7092 68.356,14.3758 65.5,17.5C 66.3554,18.293 67.1887,17.9597 68,16.5C 68.9166,20.7619 68.4166,24.7619 66.5,28.5C 60.7141,28.3116 55.0475,28.9783 49.5,30.5C 50.851,28.6085 51.5177,26.4418 51.5,24C 51.2517,22.2841 50.585,20.7841 49.5,19.5C 53.6131,14.0672 57.2797,8.40056 60.5,2.5 Z"/></g>
<g><path style="opacity:1" fill="#3f95c9" d="M 49.5,-0.5 C 50.1667,-0.5 50.8333,-0.5 51.5,-0.5C 53.4415,2.78902 55.7748,3.12235 58.5,0.5C 59.5223,0.855491 60.189,1.52216 60.5,2.5C 57.2797,8.40056 53.6131,14.0672 49.5,19.5C 50.585,20.7841 51.2517,22.2841 51.5,24C 51.5177,26.4418 50.851,28.6085 49.5,30.5C 43.5742,32.1295 38.2409,34.7962 33.5,38.5C 32.1207,41.0735 30.1207,42.5735 27.5,43C 30.969,37.5205 34.469,32.0205 38,26.5C 38.7033,24.0709 38.5366,21.7375 37.5,19.5C 41.5,12.8333 45.5,6.16667 49.5,-0.5 Z"/></g>
<g><path style="opacity:1" fill="#35a2cf" d="M 95.5,15.5 C 93.6916,15.4914 92.0249,15.9914 90.5,17C 87.8333,19.6667 85.1667,22.3333 82.5,25C 83.5784,25.6739 84.2451,26.6739 84.5,28C 84.3606,35.3429 84.3606,42.8429 84.5,50.5C 82.5,50.5 80.5,50.5 78.5,50.5C 75.3752,49.5206 72.0419,49.1872 68.5,49.5C 68.5,42.8333 68.5,36.1667 68.5,29.5C 70.5273,29.6621 72.5273,29.4955 74.5,29C 71.854,28.5026 69.1873,28.3359 66.5,28.5C 68.4166,24.7619 68.9166,20.7619 68,16.5C 67.1887,17.9597 66.3554,18.293 65.5,17.5C 68.356,14.3758 69.1893,10.7092 68,6.5C 66.8932,7.7119 66.3932,7.37857 66.5,5.5C 68.4672,5.73943 70.3005,5.40609 72,4.5C 72.9926,7.87031 74.9926,8.87031 78,7.5C 79.7505,10.3534 82.0839,11.0201 85,9.5C 85.779,10.7282 86.779,11.7282 88,12.5C 91.5508,10.8859 94.0508,11.8859 95.5,15.5 Z"/></g>
<g><path style="opacity:1" fill="#2fa6d1" d="M 101.5,17.5 C 101.062,17.4346 100.728,17.6012 100.5,18C 101.812,24.2601 102.478,30.7601 102.5,37.5C 102.496,44.2037 101.83,50.537 100.5,56.5C 97.5738,55.3024 94.5738,54.3024 91.5,53.5C 89.1124,52.6515 86.7791,51.6515 84.5,50.5C 84.3606,42.8429 84.3606,35.3429 84.5,28C 84.2451,26.6739 83.5784,25.6739 82.5,25C 85.1667,22.3333 87.8333,19.6667 90.5,17C 92.0249,15.9914 93.6916,15.4914 95.5,15.5C 98.5837,12.5555 100.584,13.2221 101.5,17.5 Z"/></g>
<g><path style="opacity:1" fill="#2caad3" d="M 101.5,17.5 C 103.924,17.1924 106.257,17.5258 108.5,18.5C 110.227,21.2873 111.394,24.2873 112,27.5C 112.333,34.1667 112.667,40.8333 113,47.5C 114.994,52.5195 118.161,56.5195 122.5,59.5C 120.875,62.8909 119.875,66.5575 119.5,70.5C 113.306,65.5774 106.973,60.9107 100.5,56.5C 101.83,50.537 102.496,44.2037 102.5,37.5C 102.478,30.7601 101.812,24.2601 100.5,18C 100.728,17.6012 101.062,17.4346 101.5,17.5 Z"/></g>
<g><path style="opacity:1" fill="#3599cb" d="M 68.5,29.5 C 68.5,36.1667 68.5,42.8333 68.5,49.5C 66.0504,49.298 63.717,49.6314 61.5,50.5C 58.1667,51.5 54.8333,52.5 51.5,53.5C 51.5,46.1667 51.5,38.8333 51.5,31.5C 57.0566,30.2641 62.7232,29.5974 68.5,29.5 Z"/></g>
<g><path style="opacity:1" fill="#a7cfe6" d="M 66.5,28.5 C 69.1873,28.3359 71.854,28.5026 74.5,29C 72.5273,29.4955 70.5273,29.6621 68.5,29.5C 62.7232,29.5974 57.0566,30.2641 51.5,31.5C 46.3456,32.5452 41.6789,34.5452 37.5,37.5C 36.1667,37.8333 34.8333,38.1667 33.5,38.5C 38.2409,34.7962 43.5742,32.1295 49.5,30.5C 55.0475,28.9783 60.7141,28.3116 66.5,28.5 Z"/></g>
<g><path style="opacity:1" fill="#3a92c8" d="M 51.5,31.5 C 51.5,38.8333 51.5,46.1667 51.5,53.5C 51.5,54.1667 51.1667,54.5 50.5,54.5C 46.1994,56.317 42.1994,58.6503 38.5,61.5C 38.8257,53.3159 38.4924,45.3159 37.5,37.5C 41.6789,34.5452 46.3456,32.5452 51.5,31.5 Z"/></g>
<g><path style="opacity:1" fill="#3f8dc5" d="M 37.5,19.5 C 38.5366,21.7375 38.7033,24.0709 38,26.5C 34.469,32.0205 30.969,37.5205 27.5,43C 30.1207,42.5735 32.1207,41.0735 33.5,38.5C 34.8333,38.1667 36.1667,37.8333 37.5,37.5C 38.4924,45.3159 38.8257,53.3159 38.5,61.5C 37.5,61.8333 36.8333,62.5 36.5,63.5C 33.5,66.1667 30.5,68.8333 27.5,71.5C 27.6664,62.4938 27.4998,53.4938 27,44.5C 24.9171,46.756 22.7504,48.756 20.5,50.5C 22.0979,45.2991 24.2646,40.2991 27,35.5C 30.2751,29.9304 33.7751,24.5971 37.5,19.5 Z"/></g>
<g><path style="opacity:0.999" fill="#4186c2" d="M 27.5,71.5 C 21.1913,83.5763 20.858,95.9096 26.5,108.5C 26.5,115.5 26.5,122.5 26.5,129.5C 23.6483,133.204 21.315,137.204 19.5,141.5C 19.1667,141.5 18.8333,141.5 18.5,141.5C 15.9578,132.25 17.6244,123.917 23.5,116.5C 22.3338,113.497 20.6672,110.83 18.5,108.5C 17.2519,109.04 16.0852,109.707 15,110.5C 15.1097,106.871 15.2764,103.204 15.5,99.5C 16.6468,86.2418 16.8135,72.9085 16,59.5C 15.5831,60.756 14.7498,61.4226 13.5,61.5C 15.0983,57.2886 17.4316,53.622 20.5,50.5C 22.7504,48.756 24.9171,46.756 27,44.5C 27.4998,53.4938 27.6664,62.4938 27.5,71.5 Z"/></g>
<g><path style="opacity:0.998" fill="#9dd7ea" d="M 68.5,49.5 C 72.0419,49.1872 75.3752,49.5206 78.5,50.5C 76.8333,50.5 75.1667,50.5 73.5,50.5C 73.6441,62.2419 73.8107,73.9086 74,85.5C 75.451,83.5359 77.2843,82.2026 79.5,81.5C 77.0011,84.1686 74.6677,87.0019 72.5,90C 71.8333,90.6667 71.1667,90.6667 70.5,90C 73.2388,83.9876 73.7388,77.821 72,71.5C 69.0027,70.1336 65.836,69.467 62.5,69.5C 60.1969,63.3716 59.8636,57.0382 61.5,50.5C 63.717,49.6314 66.0504,49.298 68.5,49.5 Z"/></g>
<g><path style="opacity:0.985" fill="#aeddec" d="M 78.5,50.5 C 80.5,50.5 82.5,50.5 84.5,50.5C 86.7791,51.6515 89.1124,52.6515 91.5,53.5C 90.5811,60.1915 90.2478,66.8582 90.5,73.5C 88.9317,72.5269 87.265,72.3603 85.5,73C 83.1215,75.5995 81.1215,78.4328 79.5,81.5C 77.2843,82.2026 75.451,83.5359 74,85.5C 73.8107,73.9086 73.6441,62.2419 73.5,50.5C 75.1667,50.5 76.8333,50.5 78.5,50.5 Z"/></g>
<g><path style="opacity:1" fill="#8fd3e8" d="M 61.5,50.5 C 59.8636,57.0382 60.1969,63.3716 62.5,69.5C 58.8333,69.5 55.1667,69.5 51.5,69.5C 50.5546,64.5947 50.2213,59.5947 50.5,54.5C 51.1667,54.5 51.5,54.1667 51.5,53.5C 54.8333,52.5 58.1667,51.5 61.5,50.5 Z"/></g>
<g><path style="opacity:0.987" fill="#bce2ee" d="M 91.5,53.5 C 94.5738,54.3024 97.5738,55.3024 100.5,56.5C 106.973,60.9107 113.306,65.5774 119.5,70.5C 120.167,71.8333 121.167,72.8333 122.5,73.5C 123.29,74.7942 124.29,75.9609 125.5,77C 124.167,77.1667 122.833,77.3333 121.5,77.5C 111.214,75.7559 100.88,74.4226 90.5,73.5C 90.2478,66.8582 90.5811,60.1915 91.5,53.5 Z"/></g>
<g><path style="opacity:0.976" fill="#4380bf" d="M 15.5,99.5 C 14.596,98.791 14.2627,97.791 14.5,96.5C 8.8428,97.4961 3.8428,99.8295 -0.5,103.5C -0.5,101.833 -0.5,100.167 -0.5,98.5C 2.71269,92.6045 6.37935,86.9379 10.5,81.5C 9.69585,74.6084 10.6958,67.9417 13.5,61.5C 14.7498,61.4226 15.5831,60.756 16,59.5C 16.8135,72.9085 16.6468,86.2418 15.5,99.5 Z"/></g>
<g><path style="opacity:0.995" fill="#7dcce6" d="M 50.5,54.5 C 50.2213,59.5947 50.5546,64.5947 51.5,69.5C 46.7682,70.1874 42.4348,71.8541 38.5,74.5C 36.5864,71.3157 35.9197,67.649 36.5,63.5C 36.8333,62.5 37.5,61.8333 38.5,61.5C 42.1994,58.6503 46.1994,56.317 50.5,54.5 Z"/></g>
<g><path style="opacity:0.999" fill="#2ab1d5" d="M 122.5,59.5 C 142.007,70.4209 161.674,81.0875 181.5,91.5C 181.5,91.8333 181.5,92.1667 181.5,92.5C 161.907,85.969 142.24,79.6357 122.5,73.5C 121.167,72.8333 120.167,71.8333 119.5,70.5C 119.875,66.5575 120.875,62.8909 122.5,59.5 Z"/></g>
<g><path style="opacity:0.988" fill="#6cc6e3" d="M 36.5,63.5 C 35.9197,67.649 36.5864,71.3157 38.5,74.5C 36.2558,76.5844 34.5892,79.0844 33.5,82C 34.5696,83.7092 35.9029,85.2092 37.5,86.5C 31.1462,94.3294 29.8129,102.996 33.5,112.5C 33.1034,113.525 32.4368,113.692 31.5,113C 29.9625,111.293 28.2959,109.793 26.5,108.5C 20.858,95.9096 21.1913,83.5763 27.5,71.5C 30.5,68.8333 33.5,66.1667 36.5,63.5 Z"/></g>
<g><path style="opacity:0.993" fill="#3d8dc5" d="M 26.5,108.5 C 28.2959,109.793 29.9625,111.293 31.5,113C 32.4368,113.692 33.1034,113.525 33.5,112.5C 39.746,113.192 45.4127,115.359 50.5,119C 46.3628,119.702 42.0295,120.702 37.5,122C 33.6605,124.356 29.9938,126.856 26.5,129.5C 26.5,122.5 26.5,115.5 26.5,108.5 Z"/></g>
</svg>
